<svg xmlns="http://www.w3.org/2000/svg" width="24" height="24" viewBox="0 0 24 24" fill="none" stroke="currentColor" stroke-width="2" stroke-linecap="round" stroke-linejoin="round">
  <!-- Comic panel frame -->
  <rect x="2" y="2" width="20" height="20" rx="1" />
  <!-- Panel divider -->
  <line x1="12" y1="2" x2="12" y2="13" />
  <line x1="2" y1="13" x2="22" y2="13" />
  <!-- Speech bubble -->
  <path d="M5 6.5c0-1.1.9-2 2-2h2c1.1 0 2 .9 2 2v1c0 1.1-.9 2-2 2H8l-1.5 1.5V9.5" />
  <!-- Halftone dots -->
  <circle cx="15" cy="6" r="0.8" fill="currentColor" />
  <circle cx="18" cy="6" r="0.8" fill="currentColor" />
  <circle cx="16.5" cy="8" r="0.8" fill="currentColor" />
  <circle cx="19.5" cy="8" r="0.8" fill="currentColor" />
  <circle cx="15" cy="10" r="0.8" fill="currentColor" />
  <circle cx="18" cy="10" r="0.8" fill="currentColor" />
  <!-- Speed lines -->
  <line x1="3" y1="16" x2="10" y2="16" stroke-width="1.5" />
  <line x1="4" y1="18" x2="11" y2="18" stroke-width="1.5" />
  <line x1="3" y1="20" x2="9" y2="20" stroke-width="1.5" />
  <!-- Action star -->
  <polygon points="17,16 18,17.5 19.5,17.5 18.5,18.5 19,20 17,19 15,20 15.5,18.5 14.5,17.5 16,17.5" fill="currentColor" stroke="none" />
</svg>
