<svg width="32" height="32" viewBox="0 0 32 32" fill="none" xmlns="http://www.w3.org/2000/svg">
<g filter="url(#filter0_d_2280_2864)">
<path d="M21 24.3333V22.6667H19.3334C18.8731 22.6667 18.5 22.2936 18.5 21.8333C18.5 21.3731 18.8731 21 19.3334 21H21V19.3333C21 18.8731 21.3731 18.5 21.8334 18.5C22.2936 18.5 22.6667 18.8731 22.6667 19.3333V21H24.3334C24.7936 21 25.1667 21.3731 25.1667 21.8333C25.1667 22.2936 24.7936 22.6667 24.3334 22.6667H22.6667V24.3333C22.6667 24.7936 22.2936 25.1667 21.8334 25.1667C21.3731 25.1667 21 24.7936 21 24.3333ZM23.5 16.8333V11C23.5 10.779 23.4122 10.5671 23.2559 10.4108C23.1191 10.274 22.9397 10.1896 22.7489 10.1707L22.6667 10.1667H9.33337C9.11236 10.1667 8.90046 10.2545 8.74418 10.4108C8.5879 10.5671 8.50004 10.779 8.50004 11V21C8.50004 21.4564 8.87694 21.8333 9.33337 21.8333H16C16.4603 21.8333 16.8334 22.2064 16.8334 22.6667C16.8334 23.1269 16.4603 23.5 16 23.5H9.33337C7.95647 23.5 6.83337 22.3769 6.83337 21V11C6.83337 10.337 7.09695 9.70126 7.5658 9.23242C8.03464 8.76358 8.67033 8.5 9.33337 8.5H22.6667C23.3297 8.5 23.9654 8.76358 24.4343 9.23242C24.9031 9.70126 25.1667 10.337 25.1667 11V16.8333C25.1667 17.2936 24.7936 17.6667 24.3334 17.6667C23.8731 17.6667 23.5 17.2936 23.5 16.8333Z" fill="white" fill-opacity="0.75"/>
<path d="M14.6251 18.0312L17.4824 16.2596L14.6251 14.488V18.0312ZM18.7918 16.2604C18.7918 16.4565 18.7441 16.6515 18.6502 16.826C18.5562 17.0007 18.4176 17.151 18.2449 17.2581L15.0825 19.2194C14.9092 19.3268 14.7089 19.3854 14.5022 19.3854C14.2954 19.3854 14.0945 19.3269 13.9212 19.2194C13.7483 19.1122 13.6098 18.9614 13.5159 18.7865C13.4222 18.6117 13.3747 18.4163 13.3751 18.2201V14.2992C13.375 14.1034 13.4224 13.9087 13.5159 13.7344L13.5948 13.6082C13.6814 13.4871 13.7917 13.3818 13.9212 13.3014L14.0555 13.2306C14.1944 13.1688 14.3457 13.1356 14.5006 13.1354L14.6544 13.146C14.7553 13.1602 14.8532 13.1889 14.9458 13.2298L15.0809 13.3006L15.0817 13.3014L18.2449 15.2619L18.3678 15.3506C18.4453 15.4145 18.5135 15.4879 18.5712 15.5687L18.6502 15.6948L18.712 15.8291C18.7651 15.9667 18.7918 16.1134 18.7918 16.2604Z" fill="white" fill-opacity="0.75"/>
</g>
<defs>
<filter id="filter0_d_2280_2864" x="-2" y="-1" width="36" height="36" filterUnits="userSpaceOnUse" color-interpolation-filters="sRGB">
<feFlood flood-opacity="0" result="BackgroundImageFix"/>
<feColorMatrix in="SourceAlpha" type="matrix" values="0 0 0 0 0 0 0 0 0 0 0 0 0 0 0 0 0 0 127 0" result="hardAlpha"/>
<feOffset dy="1"/>
<feGaussianBlur stdDeviation="1"/>
<feComposite in2="hardAlpha" operator="out"/>
<feColorMatrix type="matrix" values="0 0 0 0 0 0 0 0 0 0 0 0 0 0 0 0 0 0 0.05 0"/>
<feBlend mode="normal" in2="BackgroundImageFix" result="effect1_dropShadow_2280_2864"/>
<feBlend mode="normal" in="SourceGraphic" in2="effect1_dropShadow_2280_2864" result="shape"/>
</filter>
</defs>
</svg>
