<svg width="32" height="32" viewBox="0 0 32 32" fill="none" xmlns="http://www.w3.org/2000/svg">
<g filter="url(#filter0_d_2280_2866)">
<path d="M11.2441 17.9106C11.5695 17.5852 12.097 17.5852 12.4225 17.9106L14.9225 20.4106C15.2479 20.7361 15.2479 21.2636 14.9225 21.589L12.4225 24.089C12.097 24.4145 11.5695 24.4145 11.2441 24.089C10.9187 23.7636 10.9187 23.2361 11.2441 22.9106L12.3216 21.8332H10.1666C9.50358 21.8332 8.86789 21.5696 8.39905 21.1007C7.93021 20.6319 7.66663 19.9962 7.66663 19.3332V17.6665C7.66663 17.2063 8.03972 16.8332 8.49996 16.8332C8.9602 16.8332 9.33329 17.2063 9.33329 17.6665V19.3332C9.33329 19.5542 9.42115 19.7661 9.57743 19.9224C9.73371 20.0786 9.94561 20.1665 10.1666 20.1665H12.3216L11.2441 19.089C10.9187 18.7636 10.9187 18.2361 11.2441 17.9106ZM18.5 18.4998V22.6665H22.6666V18.4998H18.5ZM9.33329 9.33317V13.4998H13.5V9.33317H9.33329ZM17.6666 9.33317C17.2064 9.33317 16.8333 8.96007 16.8333 8.49984C16.8333 8.0396 17.2064 7.6665 17.6666 7.6665C18.1087 7.6665 18.5325 7.84222 18.845 8.15479C19.1576 8.46735 19.3333 8.89114 19.3333 9.33317V13.4998C19.3333 13.9419 19.1576 14.3657 18.845 14.6782C18.5325 14.9908 18.1087 15.1665 17.6666 15.1665C17.2064 15.1665 16.8333 14.7934 16.8333 14.3332C16.8333 13.8729 17.2064 13.4998 17.6666 13.4998V9.33317ZM21.8333 9.33317C21.3731 9.33317 21 8.96007 21 8.49984C21 8.0396 21.3731 7.6665 21.8333 7.6665C22.2753 7.6665 22.6991 7.84222 23.0117 8.15479C23.3242 8.46735 23.5 8.89114 23.5 9.33317V13.4998C23.5 13.9419 23.3242 14.3657 23.0117 14.6782C22.6991 14.9908 22.2753 15.1665 21.8333 15.1665C21.3731 15.1665 21 14.7934 21 14.3332C21 13.8729 21.3731 13.4998 21.8333 13.4998V9.33317ZM24.3333 22.6665C24.3333 23.587 23.5871 24.3332 22.6666 24.3332H18.5C17.5795 24.3332 16.8333 23.587 16.8333 22.6665V18.4998C16.8333 17.5794 17.5795 16.8332 18.5 16.8332H22.6666C23.5871 16.8332 24.3333 17.5794 24.3333 18.4998V22.6665ZM15.1666 13.4998C15.1666 14.4203 14.4204 15.1665 13.5 15.1665H9.33329C8.47025 15.1665 7.7608 14.5105 7.67558 13.6699L7.66663 13.4998V9.33317C7.66663 8.4127 8.41282 7.6665 9.33329 7.6665H13.5L13.67 7.67546C14.5106 7.76067 15.1666 8.47013 15.1666 9.33317V13.4998Z" fill="white" fill-opacity="0.75"/>
</g>
<defs>
<filter id="filter0_d_2280_2866" x="-2" y="-1" width="36" height="36" filterUnits="userSpaceOnUse" color-interpolation-filters="sRGB">
<feFlood flood-opacity="0" result="BackgroundImageFix"/>
<feColorMatrix in="SourceAlpha" type="matrix" values="0 0 0 0 0 0 0 0 0 0 0 0 0 0 0 0 0 0 127 0" result="hardAlpha"/>
<feOffset dy="1"/>
<feGaussianBlur stdDeviation="1"/>
<feComposite in2="hardAlpha" operator="out"/>
<feColorMatrix type="matrix" values="0 0 0 0 0 0 0 0 0 0 0 0 0 0 0 0 0 0 0.05 0"/>
<feBlend mode="normal" in2="BackgroundImageFix" result="effect1_dropShadow_2280_2866"/>
<feBlend mode="normal" in="SourceGraphic" in2="effect1_dropShadow_2280_2866" result="shape"/>
</filter>
</defs>
</svg>
