<svg width="16" height="16" viewBox="0 0 16 16" fill="none" xmlns="http://www.w3.org/2000/svg">
<g clip-path="url(#clip0_2496_1472)">
<path d="M14.0021 2.99984C14.0021 2.98202 13.9986 2.96417 13.9917 2.94775C13.9848 2.9314 13.9745 2.91652 13.9618 2.90413L13.9552 2.89827L13.1017 2.04476L13.0998 2.04216C13.0868 2.02907 13.0712 2.01868 13.0542 2.01156C13.0372 2.00445 13.0186 2.00051 13.0002 2.00049C12.9817 2.00049 12.9632 2.00443 12.9461 2.01156C12.9291 2.01868 12.9136 2.02902 12.9006 2.04216L10.2762 4.6665L11.3328 5.72314L13.9618 3.09554L13.9787 3.07536C13.9837 3.068 13.9882 3.06018 13.9917 3.05192C13.9986 3.03551 14.0021 3.01765 14.0021 2.99984ZM12.0002 11.9998V11.3332H11.3335C10.9653 11.3332 10.6668 11.0347 10.6668 10.6665C10.6668 10.2983 10.9653 9.99984 11.3335 9.99984H12.0002V9.33317C12.0002 8.96498 12.2986 8.6665 12.6668 8.6665C13.035 8.66658 13.3335 8.96502 13.3335 9.33317V9.99984H14.0002C14.3683 9.99991 14.6668 10.2984 14.6668 10.6665C14.6668 11.0346 14.3683 11.3331 14.0002 11.3332H13.3335V11.9998C13.3335 12.368 13.035 12.6664 12.6668 12.6665C12.2986 12.6665 12.0002 12.368 12.0002 11.9998ZM2.66683 6.6665V5.99984H2.00016C1.63197 5.99984 1.3335 5.70136 1.3335 5.33317C1.3335 4.96498 1.63197 4.6665 2.00016 4.6665H2.66683V3.99984C2.66683 3.63165 2.96531 3.33317 3.3335 3.33317C3.70163 3.33324 4.00016 3.63169 4.00016 3.99984V4.6665H4.66683C5.03496 4.66658 5.3335 4.96502 5.3335 5.33317C5.3335 5.70132 5.03496 5.99977 4.66683 5.99984H4.00016V6.6665C4.00016 7.03465 3.70163 7.3331 3.3335 7.33317C2.96531 7.33317 2.66683 7.03469 2.66683 6.6665ZM6.00016 2.6665C5.63197 2.6665 5.3335 2.36803 5.3335 1.99984C5.3335 1.63165 5.63197 1.33317 6.00016 1.33317C6.00016 0.964981 6.29864 0.666504 6.66683 0.666504C7.03496 0.666576 7.3335 0.965025 7.3335 1.33317C7.70162 1.33324 8.00016 1.63169 8.00016 1.99984C8.00016 2.34513 7.73754 2.62926 7.4012 2.66325L7.3335 2.6665L7.33024 2.73486C7.29603 3.07091 7.01189 3.3331 6.66683 3.33317C6.29864 3.33317 6.00016 3.03469 6.00016 2.6665ZM2.00081 12.9998C2.00081 13.0183 2.00476 13.0368 2.01188 13.0539C2.01543 13.0623 2.01979 13.0704 2.0249 13.078L2.04248 13.0994L2.90446 13.9614C2.91686 13.9742 2.9317 13.9844 2.94808 13.9914C2.96449 13.9983 2.98235 14.0018 3.00016 14.0018C3.01785 14.0018 3.03529 13.9982 3.0516 13.9914C3.06801 13.9844 3.08344 13.9742 3.09587 13.9614L3.10173 13.9549L10.3901 6.66585L9.3335 5.60921L2.04248 12.9002C2.02938 12.9132 2.01901 12.9288 2.01188 12.9458C2.00476 12.9629 2.00081 12.9813 2.00081 12.9998ZM15.3354 2.99984C15.3354 3.19572 15.2964 3.38968 15.2202 3.57015C15.1451 3.74797 15.0348 3.9087 14.8973 4.04411L14.8979 4.04476L4.04508 14.8976L4.04443 14.897C3.909 15.0345 3.74836 15.1448 3.57048 15.2199C3.39 15.2961 3.19605 15.3351 3.00016 15.3351C2.80431 15.3351 2.6103 15.296 2.42985 15.2199C2.24934 15.1437 2.08538 15.0322 1.94873 14.8918L1.10173 14.0448L1.10238 14.0441C0.96511 13.9076 0.855961 13.7456 0.781413 13.5669C0.70645 13.3872 0.66748 13.1946 0.66748 12.9998C0.66748 12.8051 0.70645 12.6125 0.781413 12.4328C0.85602 12.254 0.964957 12.0915 1.10238 11.9549L11.9526 1.10465C12.0896 0.966301 12.2528 0.856079 12.4325 0.781087C12.6122 0.706092 12.8054 0.667155 13.0002 0.667155C13.1949 0.667172 13.3875 0.706123 13.5672 0.781087C13.746 0.855695 13.9085 0.964632 14.0451 1.10205L14.8979 1.95492C15.0356 2.09039 15.1451 2.25156 15.2202 2.42952C15.2964 2.60999 15.3354 2.80396 15.3354 2.99984Z" fill="white" fill-opacity="0.75"/>
</g>
<defs>
<clipPath id="clip0_2496_1472">
<rect width="16" height="16" fill="white"/>
</clipPath>
</defs>
</svg>
